<svg version="1.1" id="Layer_1" xmlns="http://www.w3.org/2000/svg" xmlns:xlink="http://www.w3.org/1999/xlink" x="0px" y="0px"
	 width="100%" viewBox="0 0 195 190" enable-background="new 0 0 195 190" xml:space="preserve">
<path fill="#000103" opacity="1.000000" stroke="none" 
	d="
M99.000000,191.000000 
	C66.000000,191.000000 33.500004,191.000000 1.000004,191.000000 
	C1.000003,127.666672 1.000003,64.333344 1.000001,1.000013 
	C65.999992,1.000009 130.999985,1.000009 195.999969,1.000004 
	C195.999985,64.333321 195.999985,127.666634 196.000000,190.999969 
	C163.833328,191.000000 131.666672,191.000000 99.000000,191.000000 
M55.506882,144.066132 
	C48.688110,147.818222 41.869339,151.570312 35.040836,155.327759 
	C36.621796,160.113937 38.057842,164.461395 39.724377,169.506638 
	C51.445839,162.033249 62.699268,154.858261 74.175934,147.540939 
	C77.748894,154.187912 81.056694,160.141571 84.156876,166.201447 
	C85.512596,168.851456 86.891205,169.278503 89.638138,167.905273 
	C100.793411,162.328629 112.067413,156.989029 123.308601,151.584839 
	C133.445724,146.711411 143.597153,141.867767 153.875397,136.947250 
	C156.515793,141.457840 158.897354,145.526276 162.002365,150.830582 
	C165.698380,139.177963 168.971100,128.859909 172.400406,118.048187 
	C162.953125,118.048187 154.331238,118.048187 145.354202,118.048187 
	C146.912216,122.300545 148.251907,125.957054 149.701752,129.914154 
	C131.596649,137.190689 114.055458,144.300308 96.423462,151.177078 
	C95.376892,151.585251 93.000076,150.534058 92.268860,149.461853 
	C89.086479,144.795471 85.928886,140.043884 83.451035,134.985855 
	C81.278481,130.551041 78.942474,130.800491 75.307251,132.975220 
	C69.028503,136.731384 62.548290,140.150772 55.506882,144.066132 
M131.049774,70.655540 
	C132.219101,58.310902 133.388443,45.966263 134.617157,32.994740 
	C126.951691,33.733509 120.041084,34.292271 113.176544,35.199520 
	C112.337112,35.310467 111.232430,37.238434 111.113937,38.411530 
	C109.059174,58.754299 107.123299,79.109192 105.202766,99.465324 
	C104.753426,104.228073 104.456184,109.005165 104.038765,114.427788 
	C111.805161,114.921013 119.139809,115.386818 126.723686,115.868446 
	C128.191193,100.654579 129.593704,86.114616 131.049774,70.655540 
M89.963654,78.608604 
	C90.648514,70.565010 91.333374,62.521420 92.084152,53.703674 
	C85.076469,54.680691 78.851128,55.396317 72.709930,56.557117 
	C71.704567,56.747147 70.411957,58.874012 70.364182,60.147430 
	C69.784470,75.597687 69.391335,91.055275 69.038048,106.512978 
	C69.014671,107.535645 69.499825,109.322250 70.100296,109.489380 
	C75.536293,111.002388 81.050758,112.233498 86.848351,113.620415 
	C87.945602,101.361755 88.922966,90.442497 89.963654,78.608604 
M37.747726,90.483253 
	C37.754997,93.481438 37.574924,96.497665 37.861118,99.468987 
	C37.976688,100.668854 38.934311,102.594139 39.811577,102.783066 
	C45.454796,103.998375 51.181984,104.823784 57.629845,105.902405 
	C58.020824,93.155708 58.439877,81.075836 58.651047,68.992332 
	C58.664886,68.200378 57.110943,66.711372 56.247131,66.681595 
	C50.300419,66.476593 44.343285,66.573807 37.747673,66.573807 
	C37.747673,74.580353 37.747673,82.034088 37.747726,90.483253 
z"/>
<path fill="#0667EE" opacity="1.000000" stroke="none" 
	d="
M55.829742,143.888794 
	C62.548290,140.150772 69.028503,136.731384 75.307251,132.975220 
	C78.942474,130.800491 81.278481,130.551041 83.451035,134.985855 
	C85.928886,140.043884 89.086479,144.795471 92.268860,149.461853 
	C93.000076,150.534058 95.376892,151.585251 96.423462,151.177078 
	C114.055458,144.300308 131.596649,137.190689 149.701752,129.914154 
	C148.251907,125.957054 146.912216,122.300545 145.354202,118.048187 
	C154.331238,118.048187 162.953125,118.048187 172.400406,118.048187 
	C168.971100,128.859909 165.698380,139.177963 162.002365,150.830582 
	C158.897354,145.526276 156.515793,141.457840 153.875397,136.947250 
	C143.597153,141.867767 133.445724,146.711411 123.308601,151.584839 
	C112.067413,156.989029 100.793411,162.328629 89.638138,167.905273 
	C86.891205,169.278503 85.512596,168.851456 84.156876,166.201447 
	C81.056694,160.141571 77.748894,154.187912 74.175934,147.540939 
	C62.699268,154.858261 51.445839,162.033249 39.724377,169.506638 
	C38.057842,164.461395 36.621796,160.113937 35.040836,155.327759 
	C41.869339,151.570312 48.688110,147.818222 55.829742,143.888794 
z"/>
<path fill="#0467F4" opacity="1.000000" stroke="none" 
	d="
M131.022995,71.115097 
	C129.593704,86.114616 128.191193,100.654579 126.723686,115.868446 
	C119.139809,115.386818 111.805161,114.921013 104.038765,114.427788 
	C104.456184,109.005165 104.753426,104.228073 105.202766,99.465324 
	C107.123299,79.109192 109.059174,58.754299 111.113937,38.411530 
	C111.232430,37.238434 112.337112,35.310467 113.176544,35.199520 
	C120.041084,34.292271 126.951691,33.733509 134.617157,32.994740 
	C133.388443,45.966263 132.219101,58.310902 131.022995,71.115097 
z"/>
<path fill="#0567F1" opacity="1.000000" stroke="none" 
	d="
M89.931992,79.065926 
	C88.922966,90.442497 87.945602,101.361755 86.848351,113.620415 
	C81.050758,112.233498 75.536293,111.002388 70.100296,109.489380 
	C69.499825,109.322250 69.014671,107.535645 69.038048,106.512978 
	C69.391335,91.055275 69.784470,75.597687 70.364182,60.147430 
	C70.411957,58.874012 71.704567,56.747147 72.709930,56.557117 
	C78.851128,55.396317 85.076469,54.680691 92.084152,53.703674 
	C91.333374,62.521420 90.648514,70.565010 89.931992,79.065926 
z"/>
<path fill="#0667F1" opacity="1.000000" stroke="none" 
	d="
M37.747700,89.985535 
	C37.747673,82.034088 37.747673,74.580353 37.747673,66.573807 
	C44.343285,66.573807 50.300419,66.476593 56.247131,66.681595 
	C57.110943,66.711372 58.664886,68.200378 58.651047,68.992332 
	C58.439877,81.075836 58.020824,93.155708 57.629845,105.902405 
	C51.181984,104.823784 45.454796,103.998375 39.811577,102.783066 
	C38.934311,102.594139 37.976688,100.668854 37.861118,99.468987 
	C37.574924,96.497665 37.754997,93.481438 37.747700,89.985535 
z"/>
</svg>